<?xml version="1.0" encoding="utf-8"?>
<!-- Generator: Adobe Illustrator 24.3.0, SVG Export Plug-In . SVG Version: 6.00 Build 0)  -->
<svg version="1.1" id="Layer_1" xmlns="http://www.w3.org/2000/svg" xmlns:xlink="http://www.w3.org/1999/xlink" x="0px" y="0px"
	 viewBox="0 0 174 26" style="enable-background:new 0 0 174 26;" xml:space="preserve">
<style type="text/css">
	.st0{display:none;}
	.st1{display:inline;fill:#11142D;}
	.st2{display:none;fill:#615DFF;}
	.st3{display:inline;fill:#3DD9EB;}
	.st4{fill:none;stroke:#073D03;stroke-width:10;stroke-miterlimit:10;}
	.st5{fill:none;stroke:#231F20;stroke-linecap:round;stroke-miterlimit:10;}
	.st6{fill:#1E4F07;stroke:#231F20;stroke-linecap:round;stroke-miterlimit:10;}
	.st7{fill:url(#SVGID_1_);}
	.st8{fill:url(#SVGID_2_);}
</style>
<g class="st0">
	<path class="st1" d="M46,23V5.1h3.1l6.7,9.1h-1.5l6.6-9.1H64V23h-3.3V8.8L62,9.2l-6.8,9h-0.4l-6.6-9l1.1-0.3V23H46z M73.6,23.3
		c-1.3,0-2.4-0.3-3.5-0.9c-1-0.6-1.9-1.4-2.5-2.4c-0.6-1-0.9-2.2-0.9-3.5S67,14,67.6,13c0.6-1,1.5-1.8,2.5-2.4s2.2-0.9,3.5-0.9
		c1.3,0,2.4,0.3,3.5,0.9s1.9,1.4,2.5,2.4c0.6,1,0.9,2.2,0.9,3.5c0,1.3-0.3,2.5-0.9,3.5s-1.5,1.8-2.5,2.4C76,23,74.8,23.3,73.6,23.3z
		 M73.6,20.4c0.7,0,1.3-0.2,1.8-0.5c0.5-0.3,1-0.8,1.3-1.4c0.3-0.6,0.5-1.3,0.5-2c0-0.8-0.2-1.4-0.5-2c-0.3-0.6-0.7-1.1-1.3-1.4
		c-0.5-0.4-1.1-0.5-1.8-0.5c-0.7,0-1.4,0.2-1.9,0.5c-0.5,0.3-1,0.8-1.3,1.4c-0.3,0.6-0.5,1.2-0.5,2c0,0.8,0.2,1.4,0.5,2
		c0.3,0.6,0.8,1.1,1.3,1.4C72.2,20.2,72.8,20.4,73.6,20.4z M88.9,23.3c-1.3,0-2.4-0.3-3.4-0.9c-1-0.6-1.8-1.4-2.4-2.5
		c-0.6-1-0.9-2.2-0.9-3.5c0-1.3,0.3-2.4,0.9-3.5c0.6-1,1.4-1.8,2.4-2.4c1-0.6,2.1-0.9,3.4-0.9c1,0,1.9,0.2,2.6,0.6
		c0.8,0.4,1.4,0.9,1.8,1.6l-0.5,0.6V4.8H96V23h-3v-2.5l0.3,0.6c-0.4,0.7-1.1,1.2-1.9,1.6C90.7,23.1,89.9,23.3,88.9,23.3z M89.2,20.4
		c0.7,0,1.4-0.2,1.9-0.5c0.5-0.3,1-0.8,1.3-1.4c0.3-0.6,0.5-1.3,0.5-2c0-0.8-0.2-1.4-0.5-2c-0.3-0.6-0.7-1.1-1.3-1.4
		c-0.5-0.3-1.2-0.5-1.9-0.5c-0.7,0-1.3,0.2-1.9,0.5c-0.6,0.3-1,0.8-1.3,1.4c-0.3,0.6-0.5,1.2-0.5,2s0.2,1.4,0.5,2
		c0.3,0.6,0.8,1.1,1.3,1.4C87.9,20.2,88.5,20.4,89.2,20.4z M105.2,23.3c-1.3,0-2.5-0.3-3.5-0.9c-1-0.6-1.8-1.4-2.4-2.5
		c-0.6-1-0.8-2.2-0.8-3.5c0-1.3,0.3-2.5,0.8-3.5c0.6-1,1.4-1.8,2.3-2.4c1-0.6,2.1-0.9,3.3-0.9c1,0,1.9,0.2,2.7,0.5
		c0.8,0.3,1.4,0.8,2,1.4s1,1.3,1.2,2c0.3,0.8,0.4,1.6,0.4,2.4c0,0.2,0,0.5,0,0.7c0,0.2-0.1,0.4-0.1,0.6H101V15h8.3l-1.5,1.1
		c0.1-0.7,0.1-1.4-0.1-2c-0.2-0.6-0.6-1-1.1-1.4c-0.5-0.3-1.1-0.5-1.8-0.5c-0.7,0-1.2,0.2-1.8,0.5c-0.5,0.3-0.9,0.8-1.2,1.4
		c-0.3,0.6-0.4,1.4-0.3,2.3c-0.1,0.8,0,1.5,0.3,2.1c0.3,0.6,0.7,1.1,1.2,1.4c0.6,0.3,1.2,0.5,1.9,0.5s1.3-0.2,1.8-0.5
		c0.5-0.3,0.9-0.7,1.2-1.2l2.5,1.2c-0.3,0.6-0.7,1.2-1.2,1.7c-0.5,0.5-1.2,0.9-1.9,1.1C106.9,23.2,106.1,23.3,105.2,23.3z M113.7,23
		V9.9h3v2.9l-0.2-0.4c0.3-1,0.8-1.7,1.4-2c0.7-0.4,1.4-0.6,2.4-0.6h0.8v2.8h-1.1c-0.9,0-1.6,0.3-2.2,0.8c-0.5,0.5-0.8,1.3-0.8,2.3
		V23H113.7z M122.6,23V9.9h3v2.6l-0.2-0.5c0.3-0.8,0.8-1.4,1.5-1.8c0.7-0.4,1.5-0.6,2.4-0.6c1,0,1.8,0.2,2.5,0.6
		c0.8,0.4,1.3,1,1.8,1.8c0.4,0.7,0.6,1.6,0.6,2.6V23h-3.1v-7.7c0-0.6-0.1-1.1-0.3-1.5s-0.5-0.7-0.9-1c-0.4-0.2-0.8-0.4-1.4-0.4
		c-0.5,0-1,0.1-1.4,0.4c-0.4,0.2-0.7,0.5-0.9,1c-0.2,0.4-0.3,0.9-0.3,1.5V23H122.6z M136.9,23V9.9h3.1V23H136.9z M136.9,8.5V5.1h3.1
		v3.4H136.9z M141.8,23v-2.5l7.6-8.8l0.5,1.1h-7.7V9.9h10.5v2.6l-7.4,8.8l-0.5-1.1h8V23H141.8z M161.3,23.1c-1.3,0-2.5-0.3-3.5-0.9
		c-1-0.6-1.8-1.4-2.4-2.5c-0.6-1-0.8-2.2-0.8-3.5c0-1.3,0.3-2.5,0.8-3.5c0.6-1,1.4-1.8,2.3-2.4c1-0.6,2.1-0.9,3.3-0.9
		c1,0,1.9,0.2,2.7,0.5c0.8,0.3,1.4,0.8,2,1.4c0.5,0.6,1,1.3,1.2,2c0.3,0.8,0.4,1.6,0.4,2.4c0,0.2,0,0.5,0,0.7c0,0.2-0.1,0.4-0.1,0.6
		h-10.1v-2.4h8.3l-1.5,1.1c0.1-0.7,0.1-1.4-0.1-2c-0.2-0.6-0.6-1-1.1-1.4c-0.5-0.3-1.1-0.5-1.8-0.5c-0.7,0-1.2,0.2-1.8,0.5
		c-0.5,0.3-0.9,0.8-1.2,1.4c-0.3,0.6-0.4,1.4-0.3,2.3c-0.1,0.8,0,1.5,0.3,2.1c0.3,0.6,0.7,1.1,1.2,1.4c0.6,0.3,1.2,0.5,1.9,0.5
		c0.7,0,1.3-0.2,1.8-0.5c0.5-0.3,0.9-0.7,1.2-1.2l2.5,1.2c-0.3,0.6-0.7,1.2-1.2,1.7c-0.5,0.5-1.2,0.9-1.9,1.1
		C163.1,23,162.2,23.1,161.3,23.1z"/>
</g>
<path class="st2" d="M20.1,26c2.8,0,5-2.3,4.5-5c-0.3-1.7-0.8-3.4-1.4-5c-1.3-3.2-3.1-6-5.4-8.4C15.4,5.2,12.7,3.3,9.6,2
	C8.1,1.3,6.6,0.8,5,0.5C2.3-0.1,0,2.2,0,5v16c0,2.8,2.2,5,5,5H20.1z"/>
<g class="st0">
	<path class="st3" d="M13.7,26c-2.8,0-5-2.3-4.5-5c0.3-1.7,0.8-3.4,1.4-5c1.3-3.2,3.1-6,5.4-8.4c2.3-2.4,5.1-4.3,8.2-5.6
		c1.5-0.6,3.1-1.1,4.7-1.5c2.7-0.6,5,1.7,5,4.5v16c0,2.8-2.2,5-5,5H13.7z"/>
</g>
<path class="st4" d="M-254,150"/>
<path class="st4" d="M-347,141"/>
<path class="st5" d="M-213.5-21.4"/>
<path class="st6" d="M-218.5-21.3"/>
<path class="st6" d="M-213.8-21.3"/>
<linearGradient id="SVGID_1_" gradientUnits="userSpaceOnUse" x1="14.4689" y1="13" x2="33.6" y2="13">
	<stop  offset="0" style="stop-color:#353233"/>
	<stop  offset="0" style="stop-color:#FFFFFF"/>
	<stop  offset="0" style="stop-color:#4D7F00"/>
	<stop  offset="0.2151" style="stop-color:#59E900"/>
	<stop  offset="0.5056" style="stop-color:#009405"/>
	<stop  offset="0.8464" style="stop-color:#284207"/>
	<stop  offset="0.9972" style="stop-color:#1C3A04"/>
	<stop  offset="1" style="stop-color:#043F00"/>
</linearGradient>
<path class="st7" d="M32.8,0.8c0,0-10.6,0.5-15.5,7.2c-3.8,5.3-3,12.8-2.4,15.8c3.7-5.6,10.5-15.2,10.8-15c0.1,0-1.1,2.1-3.5,6.1
	c-2,3.3-3,5-3.7,6.1c-1.1,1.5-2.2,3-3.2,4.2c0,0,0,0,0,0s10.6-0.5,15.5-7.2C35.6,11.2,32.8,0.8,32.8,0.8z"/>
<linearGradient id="SVGID_2_" gradientUnits="userSpaceOnUse" x1="-146.2644" y1="315.08" x2="-126.3859" y2="315.08" gradientTransform="matrix(0.2345 -0.7221 0.5765 0.1872 -139.2813 -143.5392)">
	<stop  offset="0" style="stop-color:#353233"/>
	<stop  offset="0" style="stop-color:#FFFFFF"/>
	<stop  offset="0" style="stop-color:#4D7F00"/>
	<stop  offset="0.2151" style="stop-color:#59E900"/>
	<stop  offset="0.5056" style="stop-color:#009405"/>
	<stop  offset="0.8464" style="stop-color:#284207"/>
	<stop  offset="0.9972" style="stop-color:#1C3A04"/>
	<stop  offset="1" style="stop-color:#043F00"/>
</linearGradient>
<path class="st8" d="M5.7,5c0,0-2.2,8,0.4,12.9c2,3.8,6.4,4.6,8.2,4.8C12,18.9,8.3,12,8.5,11.9c0,0,0.9,1.2,2.6,3.8
	c1.4,2.1,2.1,3.2,2.5,3.9c0.6,1.1,1.1,2.2,1.6,3.2c0,0,0,0,0,0s2.2-8-0.4-12.9C12.1,4.9,5.7,5,5.7,5z"/>
<g>
	<g>
		<path d="M43.4,7.2h2.9v14.4h10.1v1.7H43.4V7.2z"/>
		<path d="M59,17.4c0-3.9,3.8-6.3,7.7-6.3c4.4,0,6.8,2.2,6.8,5.6c0,0.4-0.1,0.9-0.1,1.2H61.9c0.2,2.5,2.4,4.2,5.7,4.2
			c1.6,0,3-0.4,4.3-1l1,1.3c-1.5,0.7-3.3,1.2-5.7,1.2C62.6,23.7,59,21.4,59,17.4z M71,16.4c0-2.4-1.5-3.7-4.2-3.7
			c-2.4,0-4.6,1.4-4.9,3.7H71z"/>
		<path d="M76.7,20.3c0-2.6,3.2-3.9,10.5-4.5c0-1.5-0.7-3-3.5-3c-2,0-3.8,0.7-5.1,1.3l-1.1-1.4c1.6-0.7,4-1.6,6.7-1.6
			c4.2,0,6,1.9,6,4.9v7.3h-2.4L87.5,22h-0.1c-1.6,0.9-3.5,1.7-5.7,1.7C78.9,23.7,76.7,22.4,76.7,20.3z M87.3,20.5v-3.3
			c-5.8,0.5-7.7,1.5-7.7,3c0,1.4,1.3,1.9,3,1.9C84.2,22.1,85.6,21.5,87.3,20.5z"/>
		<path d="M93.7,11.5l2.5-0.1h6.4v1.7h-8.9V11.5z M96.1,9.5c0-2.4,1.6-4,5-4c1,0,2.1,0.2,2.8,0.4l-0.6,1.5c-0.7-0.2-1.3-0.3-1.9-0.3
			C99.8,7.2,99,8,99,9.5v13.9h-2.9V9.5z"/>
		<path d="M106.2,7.2h2.9v14.4h10.1v1.7h-13.1V7.2z"/>
		<path d="M121.8,17.4c0-3.9,3.8-6.3,7.7-6.3c4.4,0,6.8,2.2,6.8,5.6c0,0.4-0.1,0.9-0.1,1.2h-11.6c0.2,2.5,2.4,4.2,5.7,4.2
			c1.6,0,3-0.4,4.3-1l1,1.3c-1.5,0.7-3.3,1.2-5.7,1.2C125.4,23.7,121.8,21.4,121.8,17.4z M133.8,16.4c0-2.4-1.5-3.7-4.2-3.7
			c-2.4,0-4.6,1.4-4.9,3.7H133.8z"/>
		<path d="M140.6,11.4h2.4l0.2,1.7h0.1c1.6-1.1,3.4-2,5.8-2c3.6,0,5.2,1.6,5.2,4.7v7.6h-2.9v-7.3c0-2.2-1-3.2-3.2-3.2
			c-1.8,0-3,0.6-4.7,1.8v8.7h-2.9V11.4z"/>
		<path d="M158,22l1.4-1.3c1.5,0.8,3,1.4,5.1,1.4c2.3,0,3.4-0.8,3.4-1.9c0-1.2-2-1.8-3.9-2.3c-2.4-0.6-5.1-1.4-5.1-3.5
			c0-1.9,2.2-3.4,5.9-3.4c2.1,0,4,0.6,5.3,1.3l-1.4,1.3c-1.2-0.6-2.4-1.1-3.9-1.1c-2.2,0-3.2,0.8-3.2,1.7c0,1.1,1.9,1.6,3.8,2.1
			c2.5,0.7,5.2,1.4,5.2,3.6c0,1.9-2.2,3.6-6.3,3.6C162,23.7,159.6,23,158,22z"/>
	</g>
</g>
</svg>
